<?xml version="1.0" encoding="utf-8"?>
<!-- Generator: Adobe Illustrator 24.0.2, SVG Export Plug-In . SVG Version: 6.00 Build 0)  -->
<svg version="1.1" xmlns="http://www.w3.org/2000/svg" xmlns:xlink="http://www.w3.org/1999/xlink" x="0px" y="0px"
	 xml:space="preserve">
<style type="text/css">
	.st0{fill:url(#SVGID_1_);}
	.st1{fill:url(#SVGID_2_);}
	.st2{opacity:0.9;fill:url(#SVGID_3_);}
	.st3{fill:none;stroke:#222428;stroke-miterlimit:10;}
	.st4{fill:url(#SVGID_4_);}
	.st5{opacity:0.9;fill:url(#SVGID_5_);}
	.st6{fill:url(#SVGID_6_);}
	.st7{fill:none;stroke:#FF1A61;stroke-width:8.7854;stroke-miterlimit:10;}
	.st8{fill:url(#SVGID_7_);}
	.st9{fill:url(#SVGID_8_);}
	.st10{fill:url(#SVGID_9_);}
	.st11{fill:url(#SVGID_10_);}
	.st12{fill:url(#SVGID_11_);}
	.st13{fill:url(#SVGID_12_);}
</style>
<g id="Layer_1">
</g>
<g id="Layer_2">
	<g>
		<g>
			<path d="M776.51,614l-0.07-27.47l-9.33,22.9h-9l-9.33-22.9V614h-12.11v-46.4h14.76l11.19,25.68l11.19-25.68h14.76V614H776.51z"/>
			<path d="M831.45,599.24h-24.23c1.06,3.44,3.57,5.36,7.02,5.36c2.85,0,5.56-1.26,7.94-3.44l6.95,6.82
				c-3.77,4.17-9.2,6.49-16.02,6.49c-12.05,0-19.4-7.28-19.4-18.33c0-11.25,7.61-18.6,19-18.6
				C825.36,577.53,832.24,586.01,831.45,599.24z M818.28,592.69c0.07-3.57-2.18-6.09-5.43-6.09c-3.11,0-5.23,2.45-5.89,6.09H818.28z
				"/>
			<path d="M874.61,591.17V614h-13.37v-19c0-3.57-2.05-5.83-5.16-5.83c-3.64,0.07-5.89,2.91-5.89,7.02V614h-13.37V578h13.37v5.56
				c2.52-3.97,6.42-6.09,11.45-6.09C869.31,577.47,874.61,582.83,874.61,591.17z"/>
			<path d="M906.32,612.28c-2.51,1.46-6.35,2.32-10,2.32c-7.68,0.07-12.84-4.37-12.84-11.85v-14.36h-4.96v-8.54h4.96v-10h13.3v10
				h8.87v8.54h-8.87v12.31c0,2.32,1.19,3.44,3.04,3.44c1.06,0,2.51-0.46,4.1-1.06L906.32,612.28z"/>
			<path d="M948.62,596c0,11.12-7.88,18.47-19.99,18.47s-20.06-7.35-20.06-18.47c0-11.19,7.94-18.47,20.06-18.47
				S948.62,584.81,948.62,596z M922.08,596.13c0,4.83,2.58,8.01,6.55,8.01c3.91,0,6.49-3.18,6.49-8.01c0-4.77-2.58-8.01-6.49-8.01
				C924.66,588.12,922.08,591.37,922.08,596.13z"/>
			<path d="M967.29,583.69c2.52-3.97,6.42-6.22,11.32-6.22v12.05c-6.88-0.86-11.32,2.05-11.32,7.28V614h-13.37V578h13.37V583.69z"/>
			<path d="M1013.43,614v-17.28h-16.48V614h-13.77v-46.4h13.77v18.47h16.48V567.6h13.77V614H1013.43z"/>
			<path d="M1085.05,620.23c-3.57,3.11-9.07,5.16-13.83,5.16c-6.75,0-12.31-4.24-15.03-10.86c-13.83-0.66-23.83-10.52-23.83-23.76
				c0-13.64,10.72-23.56,25.29-23.56s25.29,10,25.29,23.56c0,10.06-5.89,18.27-14.83,21.91c1.26,1.59,2.85,2.58,4.63,2.58
				c1.99,0,4.9-1.26,7.68-3.31L1085.05,620.23z M1057.84,603.08c6.09,0,10.99-5.23,10.99-12.25c0-7.02-4.9-12.11-10.99-12.11
				c-6.16,0-11.39,5.1-11.39,12.11C1046.46,597.85,1051.76,603.08,1057.84,603.08z"/>
		</g>
		<g>
			<g>
				<g>
					<linearGradient id="SVGID_1_" gradientUnits="userSpaceOnUse" x1="715.679" y1="690.1202" x2="704.1589" y2="670.4402">
						<stop  offset="0" style="stop-color:#EC1379"/>
						<stop  offset="1" style="stop-color:#6C0092"/>
					</linearGradient>
					<path class="st0" d="M680.45,655.18c-7.78,0-15-3.52-19.8-9.65l-0.26-0.36c-1.08-1.39-1.98-2.88-2.68-4.42l7.99-3.65
						c0.45,0.98,1.04,1.94,1.76,2.84l0.27,0.37c3.13,3.87,7.75,6.08,12.72,6.08c9.06,0,16.43-7.37,16.43-16.43
						c0-3.64-1.15-7.06-3.33-9.88l6.95-5.38c3.38,4.37,5.16,9.64,5.16,15.25C705.66,643.87,694.35,655.18,680.45,655.18z"/>
				</g>
				<path class="st7" d="M657.55,552.71l-1.14-1.87c-3.75-5.45-10.04-9.02-17.16-9.02c-11.48,0-20.79,9.31-20.79,20.82
					c0,4.1,1.2,7.94,3.25,11.16l0.29,0.47"/>
				<g>
					<linearGradient id="SVGID_2_" gradientUnits="userSpaceOnUse" x1="697.1412" y1="700.9716" x2="685.6212" y2="681.2916">
						<stop  offset="0" style="stop-color:#EC1379"/>
						<stop  offset="1" style="stop-color:#6C0092"/>
					</linearGradient>
					<polygon class="st1" points="660.36,645.12 617.96,576.09 625.44,571.5 667.84,640.53 					"/>
				</g>
				<g>
					<linearGradient id="SVGID_3_" gradientUnits="userSpaceOnUse" x1="732.8992" y1="680.04" x2="721.3792" y2="660.36">
						<stop  offset="0" style="stop-color:#EC1379"/>
						<stop  offset="1" style="stop-color:#6C0092"/>
					</linearGradient>
					<polygon style="fill:url(#SVGID_3_);" points="695.12,622.71 652.66,553.14 660.16,548.56 702.62,618.14 					"/>
				</g>
			</g>
			<g>
				<path class="st7" d="M579.31,638.93c0.61,1.35,1.41,2.61,2.31,3.75l0.09,0.15c3.81,4.86,9.72,7.97,16.34,7.97
					c11.51,0,20.82-9.34,20.82-20.82c0-4.71-1.55-9.08-4.25-12.56"/>
				<path class="st7" d="M575.15,552.71l-1.14-1.87c-3.75-5.45-10.04-9.02-17.16-9.02c-11.48,0-20.79,9.31-20.79,20.82
					c0,4.1,1.2,7.94,3.25,11.16l0.29,0.47"/>
				<g>
					<linearGradient id="SVGID_4_" gradientUnits="userSpaceOnUse" x1="681.301" y1="635.5872" x2="658.981" y2="630.5472">
						<stop  offset="0" style="stop-color:#EC1379"/>
						<stop  offset="1" style="stop-color:#6C0092"/>
					</linearGradient>
					<polygon class="st4" points="577.96,645.12 535.56,576.09 543.04,571.5 585.45,640.53 					"/>
				</g>
				<g>
					<linearGradient id="SVGID_5_" gradientUnits="userSpaceOnUse" x1="687.8575" y1="606.5514" x2="665.5375" y2="601.5114">
						<stop  offset="0" style="stop-color:#EC1379"/>
						<stop  offset="1" style="stop-color:#6C0092"/>
					</linearGradient>
					<polygon style="fill:url(#SVGID_5_);" points="612.72,622.71 570.27,553.14 577.77,548.56 620.22,618.14 					"/>
				</g>
			</g>
			<g>
				<linearGradient id="SVGID_6_" gradientUnits="userSpaceOnUse" x1="485.2434" y1="583.9535" x2="576.4434" y2="606.0335">
					<stop  offset="0" style="stop-color:#EC1379"/>
					<stop  offset="1" style="stop-color:#6C0092"/>
				</linearGradient>
				<path class="st6" d="M582.01,562.63c0-13.88-11.3-25.21-25.18-25.21c-8.32,0-16.08,4.1-20.91,11.13l-0.03,0.03l-1.11,1.84
					l-39.45,64.63c-3.22,4.3-4.92,9.46-4.92,14.91c0,13.91,11.3,25.21,25.21,25.21c7.76,0,14.99-3.51,19.8-9.64l0.23-0.35
					c0-0.03,0.03-0.03,0.06-0.06l0.09-0.15l0,0c0.94-1.23,1.73-2.55,2.37-3.86l0,0l39.62-64.51l0.26-0.44l0.06-0.06h-0.03
					C580.64,572.03,582.01,567.41,582.01,562.63z M525.13,643.32c1.18-0.85,2.27-1.85,3.21-3.03
					C527.4,641.47,526.31,642.47,525.13,643.32z"/>
				<linearGradient id="SVGID_7_" gradientUnits="userSpaceOnUse" x1="574.2449" y1="590.911" x2="673.1249" y2="602.911">
					<stop  offset="0" style="stop-color:#EC1379"/>
					<stop  offset="1" style="stop-color:#6C0092"/>
				</linearGradient>
				<path class="st8" d="M639.2,537.42c-8.29,0-16.08,4.1-20.91,11.13v0.03l-1.14,1.84l-39.59,64.89c0,0,0,0,0,0
					c-3.13,4.25-4.77,9.28-4.77,14.64c0,13.91,11.33,25.21,25.21,25.21c7.79,0,14.99-3.51,19.83-9.64l0.23-0.38l0.03-0.03l0.03-0.06
					c1.03-1.32,1.9-2.72,2.58-4.19l0.06-0.12l39.45-64.19l0.29-0.47c2.55-4.07,3.9-8.7,3.9-13.47
					C664.39,548.75,653.11,537.42,639.2,537.42z"/>
			</g>
		</g>
	</g>
</g>
</svg>
