<?xml version="1.0" encoding="UTF-8" standalone="no"?>
<!DOCTYPE svg PUBLIC "-//W3C//DTD SVG 1.1//EN" "http://www.w3.org/Graphics/SVG/1.1/DTD/svg11.dtd">
<svg width="100%" height="100%" viewBox="0 0 1047 582" version="1.1" xmlns="http://www.w3.org/2000/svg" xmlns:xlink="http://www.w3.org/1999/xlink" xml:space="preserve" xmlns:serif="http://www.serif.com/" style="fill-rule:evenodd;clip-rule:evenodd;stroke-miterlimit:10;">
    <g transform="matrix(0.949703,0,0,0.939612,13.2528,-228.581)">
        <rect id="Artboard1" x="-13.955" y="243.272" width="1101.75" height="618.624" style="fill:none;"/>
        <clipPath id="_clip1">
            <rect id="Artboard11" serif:id="Artboard1" x="-13.955" y="243.272" width="1101.75" height="618.624"/>
        </clipPath>
        <g clip-path="url(#_clip1)">
            <g transform="matrix(5.09213,0,0,5.14682,-2507.85,-2513.82)">
                <g>
                    <g>
                        <path d="M680.45,655.18C672.67,655.18 665.45,651.66 660.65,645.53L660.39,645.17C659.31,643.78 658.41,642.29 657.71,640.75L665.7,637.1C666.15,638.08 666.74,639.04 667.46,639.94L667.73,640.31C670.86,644.18 675.48,646.39 680.45,646.39C689.51,646.39 696.88,639.02 696.88,629.96C696.88,626.32 695.73,622.9 693.55,620.08L700.5,614.7C703.88,619.07 705.66,624.34 705.66,629.95C705.66,643.87 694.35,655.18 680.45,655.18Z" style="fill:url(#_Linear2);fill-rule:nonzero;"/>
                    </g>
                    <path d="M657.55,552.71L656.41,550.84C652.66,545.39 646.37,541.82 639.25,541.82C627.77,541.82 618.46,551.13 618.46,562.64C618.46,566.74 619.66,570.58 621.71,573.8L622,574.27" style="fill:none;fill-rule:nonzero;stroke:rgb(255,26,97);stroke-width:8.79px;"/>
                    <g>
                        <path d="M660.36,645.12L617.96,576.09L625.44,571.5L667.84,640.53L660.36,645.12Z" style="fill:url(#_Linear3);fill-rule:nonzero;"/>
                    </g>
                    <g>
                        <path d="M695.12,622.71L652.66,553.14L660.16,548.56L702.62,618.14L695.12,622.71Z" style="fill:url(#_Linear4);fill-rule:nonzero;"/>
                    </g>
                </g>
                <g>
                    <path d="M579.31,638.93C579.92,640.28 580.72,641.54 581.62,642.68L581.71,642.83C585.52,647.69 591.43,650.8 598.05,650.8C609.56,650.8 618.87,641.46 618.87,629.98C618.87,625.27 617.32,620.9 614.62,617.42" style="fill:none;fill-rule:nonzero;stroke:rgb(255,26,97);stroke-width:8.79px;"/>
                    <path d="M575.15,552.71L574.01,550.84C570.26,545.39 563.97,541.82 556.85,541.82C545.37,541.82 536.06,551.13 536.06,562.64C536.06,566.74 537.26,570.58 539.31,573.8L539.6,574.27" style="fill:none;fill-rule:nonzero;stroke:rgb(255,26,97);stroke-width:8.79px;"/>
                    <g>
                        <path d="M577.96,645.12L535.56,576.09L543.04,571.5L585.45,640.53L577.96,645.12Z" style="fill:url(#_Linear5);fill-rule:nonzero;"/>
                    </g>
                    <g>
                        <path d="M612.72,622.71L570.27,553.14L577.77,548.56L620.22,618.14L612.72,622.71Z" style="fill:url(#_Linear6);fill-rule:nonzero;"/>
                    </g>
                </g>
                <g>
                    <path d="M582.01,562.63C582.01,548.75 570.71,537.42 556.83,537.42C548.51,537.42 540.75,541.52 535.92,548.55L535.89,548.58L534.78,550.42L495.33,615.05C492.11,619.35 490.41,624.51 490.41,629.96C490.41,643.87 501.71,655.17 515.62,655.17C523.38,655.17 530.61,651.66 535.42,645.53L535.65,645.18C535.65,645.15 535.68,645.15 535.71,645.12L535.8,644.97C536.74,643.74 537.53,642.42 538.17,641.11L577.79,576.6L578.05,576.16L578.11,576.1L578.08,576.1C580.64,572.03 582.01,567.41 582.01,562.63ZM525.13,643.32C526.31,642.47 527.4,641.47 528.34,640.29C527.4,641.47 526.31,642.47 525.13,643.32Z" style="fill:url(#_Linear7);fill-rule:nonzero;"/>
                    <path d="M639.2,537.42C630.91,537.42 623.12,541.52 618.29,548.55L618.29,548.58L617.15,550.42L577.56,615.31C574.43,619.56 572.79,624.59 572.79,629.95C572.79,643.86 584.12,655.16 598,655.16C605.79,655.16 612.99,651.65 617.83,645.52L618.06,645.14L618.09,645.11L618.12,645.05C619.15,643.73 620.02,642.33 620.7,640.86L620.76,640.74L660.21,576.55L660.5,576.08C663.05,572.01 664.4,567.38 664.4,562.61C664.39,548.75 653.11,537.42 639.2,537.42Z" style="fill:url(#_Linear8);fill-rule:nonzero;"/>
                </g>
            </g>
        </g>
    </g>
    <defs>
        <linearGradient id="_Linear2" x1="0" y1="0" x2="1" y2="0" gradientUnits="userSpaceOnUse" gradientTransform="matrix(-11.5201,-19.68,19.68,-11.5201,715.679,690.12)"><stop offset="0" style="stop-color:rgb(236,19,121);stop-opacity:1"/><stop offset="1" style="stop-color:rgb(108,0,146);stop-opacity:1"/></linearGradient>
        <linearGradient id="_Linear3" x1="0" y1="0" x2="1" y2="0" gradientUnits="userSpaceOnUse" gradientTransform="matrix(-11.52,-19.68,19.68,-11.52,697.141,700.972)"><stop offset="0" style="stop-color:rgb(236,19,121);stop-opacity:1"/><stop offset="1" style="stop-color:rgb(108,0,146);stop-opacity:1"/></linearGradient>
        <linearGradient id="_Linear4" x1="0" y1="0" x2="1" y2="0" gradientUnits="userSpaceOnUse" gradientTransform="matrix(-11.52,-19.68,19.68,-11.52,732.899,680.04)"><stop offset="0" style="stop-color:rgb(236,19,121);stop-opacity:1"/><stop offset="1" style="stop-color:rgb(108,0,146);stop-opacity:1"/></linearGradient>
        <linearGradient id="_Linear5" x1="0" y1="0" x2="1" y2="0" gradientUnits="userSpaceOnUse" gradientTransform="matrix(-22.32,-5.04,5.04,-22.32,681.301,635.587)"><stop offset="0" style="stop-color:rgb(236,19,121);stop-opacity:1"/><stop offset="1" style="stop-color:rgb(108,0,146);stop-opacity:1"/></linearGradient>
        <linearGradient id="_Linear6" x1="0" y1="0" x2="1" y2="0" gradientUnits="userSpaceOnUse" gradientTransform="matrix(-22.32,-5.04,5.04,-22.32,687.857,606.551)"><stop offset="0" style="stop-color:rgb(236,19,121);stop-opacity:1"/><stop offset="1" style="stop-color:rgb(108,0,146);stop-opacity:1"/></linearGradient>
        <linearGradient id="_Linear7" x1="0" y1="0" x2="1" y2="0" gradientUnits="userSpaceOnUse" gradientTransform="matrix(91.2,22.08,-22.08,91.2,485.243,583.953)"><stop offset="0" style="stop-color:rgb(236,19,121);stop-opacity:1"/><stop offset="1" style="stop-color:rgb(108,0,146);stop-opacity:1"/></linearGradient>
        <linearGradient id="_Linear8" x1="0" y1="0" x2="1" y2="0" gradientUnits="userSpaceOnUse" gradientTransform="matrix(98.88,12,-12,98.88,574.245,590.911)"><stop offset="0" style="stop-color:rgb(236,19,121);stop-opacity:1"/><stop offset="1" style="stop-color:rgb(108,0,146);stop-opacity:1"/></linearGradient>
    </defs>
</svg>
