<?xml version="1.0" encoding="UTF-8" standalone="no"?>
<!DOCTYPE svg PUBLIC "-//W3C//DTD SVG 1.1//EN" "http://www.w3.org/Graphics/SVG/1.1/DTD/svg11.dtd">
<svg width="100%" height="100%" viewBox="0 0 5157 1636" version="1.1" xmlns="http://www.w3.org/2000/svg" xmlns:xlink="http://www.w3.org/1999/xlink" xml:space="preserve" xmlns:serif="http://www.serif.com/" style="fill-rule:evenodd;clip-rule:evenodd;stroke-linejoin:round;stroke-miterlimit:2;">
    <g transform="matrix(1,0,0,1,-11603.1,0)">
        <g transform="matrix(4.16667,0,0,4.16667,11603.1,0)">
            <rect id="Page-3" serif:id="Page 3" x="0" y="0" width="1237.66" height="392.499" style="fill:none;"/>
            <g id="Page-31" serif:id="Page 3">
                <g transform="matrix(818.82,0,0,-818.82,209.422,194.742)">
                    <g id="Layer-1" serif:id="Layer 1">
                        <path d="M0.154,0.078L0.1,0.024L0.047,0.078C0.036,0.088 0.019,0.088 0.008,0.078C-0.003,0.067 -0.003,0.049 0.008,0.039L0.1,-0.054L0.193,0.039C0.204,0.05 0.204,0.068 0.193,0.078C0.188,0.084 0.181,0.086 0.174,0.086C0.166,0.086 0.159,0.084 0.154,0.078ZM0.897,0.057C0.886,0.052 0.878,0.044 0.872,0.033C0.866,0.023 0.863,0.012 0.863,-0.001C0.863,-0.014 0.866,-0.025 0.872,-0.036C0.878,-0.046 0.886,-0.054 0.897,-0.06C0.907,-0.065 0.918,-0.068 0.93,-0.068C0.936,-0.068 0.942,-0.068 0.947,-0.066L0.967,-0.09L1,-0.09L0.97,-0.056C0.978,-0.05 0.985,-0.042 0.99,-0.033C0.995,-0.023 0.998,-0.013 0.998,-0.001C0.998,0.012 0.995,0.023 0.989,0.033C0.983,0.044 0.975,0.052 0.964,0.057C0.954,0.063 0.943,0.066 0.93,0.066C0.918,0.066 0.907,0.063 0.897,0.057ZM0.909,-0.039C0.903,-0.036 0.899,-0.031 0.895,-0.024C0.892,-0.017 0.89,-0.01 0.89,-0.001C0.89,0.008 0.892,0.015 0.895,0.022C0.899,0.029 0.903,0.034 0.909,0.037C0.916,0.041 0.923,0.042 0.93,0.042C0.938,0.042 0.945,0.041 0.951,0.037C0.957,0.034 0.962,0.029 0.965,0.022C0.969,0.015 0.97,0.008 0.97,-0.001C0.97,-0.01 0.969,-0.017 0.965,-0.024C0.962,-0.031 0.957,-0.036 0.951,-0.039C0.945,-0.043 0.938,-0.045 0.93,-0.045C0.923,-0.045 0.916,-0.043 0.909,-0.039ZM0.817,0.064L0.817,0.01L0.761,0.01L0.761,0.064L0.735,0.064L0.735,-0.067L0.761,-0.067L0.761,-0.011L0.817,-0.011L0.817,-0.067L0.844,-0.067L0.844,0.064L0.817,0.064ZM0.474,0.063L0.474,0.037L0.462,0.037L0.462,0.016L0.474,0.016L0.474,-0.035C0.474,-0.056 0.485,-0.067 0.507,-0.067L0.524,-0.067L0.524,-0.045L0.512,-0.045C0.508,-0.045 0.505,-0.044 0.503,-0.042C0.501,-0.041 0.501,-0.038 0.501,-0.035L0.501,0.016L0.524,0.016L0.524,0.037L0.501,0.037L0.501,0.063L0.474,0.063ZM0.197,0.035L0.146,-0.016L0.146,-0.067L0.201,-0.067L0.201,0.04C0.2,0.038 0.199,0.036 0.197,0.035ZM0.561,0.032C0.553,0.028 0.547,0.022 0.543,0.013C0.538,0.005 0.536,-0.004 0.536,-0.015C0.536,-0.026 0.538,-0.035 0.543,-0.043C0.547,-0.051 0.553,-0.058 0.561,-0.062C0.569,-0.066 0.578,-0.069 0.588,-0.069C0.601,-0.069 0.611,-0.065 0.62,-0.059C0.628,-0.053 0.634,-0.044 0.637,-0.034L0.609,-0.034C0.605,-0.043 0.598,-0.047 0.588,-0.047C0.581,-0.047 0.575,-0.045 0.571,-0.04C0.566,-0.036 0.563,-0.03 0.563,-0.023L0.639,-0.023C0.639,-0.02 0.64,-0.016 0.64,-0.013C0.64,-0.003 0.638,0.006 0.633,0.014C0.629,0.022 0.623,0.028 0.615,0.032C0.607,0.037 0.598,0.039 0.588,0.039C0.578,0.039 0.569,0.037 0.561,0.032ZM0.571,0.011C0.576,0.015 0.581,0.017 0.588,0.017C0.595,0.017 0.6,0.015 0.605,0.011C0.61,0.007 0.612,0.002 0.612,-0.005L0.563,-0.005C0.564,0.002 0.567,0.007 0.571,0.011ZM0.248,0.032C0.24,0.028 0.234,0.022 0.23,0.013C0.225,0.005 0.223,-0.004 0.223,-0.015C0.223,-0.026 0.225,-0.035 0.23,-0.043C0.234,-0.051 0.24,-0.058 0.248,-0.062C0.256,-0.066 0.265,-0.069 0.275,-0.069C0.288,-0.069 0.298,-0.065 0.307,-0.059C0.315,-0.053 0.321,-0.044 0.324,-0.034L0.296,-0.034C0.291,-0.043 0.284,-0.047 0.275,-0.047C0.268,-0.047 0.262,-0.045 0.258,-0.04C0.253,-0.036 0.25,-0.03 0.25,-0.023L0.326,-0.023C0.326,-0.02 0.327,-0.016 0.327,-0.013C0.327,-0.003 0.324,0.006 0.32,0.014C0.316,0.022 0.31,0.028 0.302,0.032C0.294,0.037 0.285,0.039 0.275,0.039C0.265,0.039 0.256,0.037 0.248,0.032ZM0.258,0.011C0.263,0.015 0.268,0.017 0.275,0.017C0.281,0.017 0.287,0.015 0.292,0.011C0.297,0.007 0.299,0.002 0.299,-0.005L0.25,-0.005C0.251,0.002 0.254,0.007 0.258,0.011ZM0,-0.067L0.055,-0.067L0.055,-0.017L0.004,0.034C0.002,0.036 0.001,0.037 0,0.039L0,-0.067ZM0.698,0.034C0.693,0.031 0.689,0.026 0.685,0.021L0.685,0.037L0.659,0.037L0.659,-0.067L0.685,-0.067L0.685,-0.015C0.685,-0.005 0.687,0.001 0.691,0.005C0.696,0.009 0.702,0.011 0.71,0.011L0.717,0.011L0.717,0.039C0.71,0.039 0.704,0.037 0.698,0.034ZM0.385,0.035C0.38,0.032 0.376,0.029 0.372,0.024L0.372,0.037L0.346,0.037L0.346,-0.067L0.372,-0.067L0.372,-0.009C0.372,-0.001 0.374,0.005 0.378,0.01C0.383,0.014 0.388,0.016 0.396,0.016C0.403,0.016 0.408,0.014 0.412,0.01C0.417,0.005 0.419,-0.001 0.419,-0.009L0.419,-0.067L0.445,-0.067L0.445,-0.006C0.445,0.008 0.441,0.019 0.434,0.027C0.426,0.035 0.416,0.039 0.403,0.039C0.397,0.039 0.391,0.037 0.385,0.035Z" style="fill:url(#_Linear1);fill-rule:nonzero;"/>
                    </g>
                </g>
            </g>
        </g>
    </g>
    <defs>
        <linearGradient id="_Linear1" x1="0" y1="0" x2="1" y2="0" gradientUnits="userSpaceOnUse" gradientTransform="matrix(1,0,0,-1,0,-0.00184057)"><stop offset="0" style="stop-color:rgb(243,118,87);stop-opacity:1"/><stop offset="1" style="stop-color:rgb(238,49,123);stop-opacity:1"/></linearGradient>
    </defs>
</svg>
